<svg viewBox="0 0 325.44 350.69" xmlns="http://www.w3.org/2000/svg" data-sanitized-data-name="Layer 1" data-name="Layer 1" id="Layer_1"><defs><style>.cls-1{fill:#fff;}</style></defs><path d="M242.13,205.19c-38.7-51.38-12.19-171-11.91-172.16L219.9,30.68a441.3,441.3,0,0,0-9,68.94c-2.46,49.36,4.64,86.24,21.17,109.76L222.86,242a30.08,30.08,0,0,0-14.71,5.82c-13.59,9.62-31.4,35.32-40.27,102.85h10.68c8.73-65.1,25.59-86.66,35.07-93.77,6.6-4.92,11.44-4.47,12.08-4.39l4.79,1.35,13.22-46.6Z" class="cls-1"></path><path d="M157.56,350.69c-8.86-67.53-26.68-93.23-40.3-102.85A30,30,0,0,0,102.58,242l-9.26-32.64C109.85,185.86,117,149,114.49,99.62a441.3,441.3,0,0,0-8.95-68.94L95.22,33c.28,1.2,26.82,120.76-11.91,172.16l-1.59,2.09,11.8,41.53L94.69,254l5-1.43c.67-.08,5.51-.53,12.11,4.39,9.48,7.11,26.34,28.67,35.07,93.77Z" class="cls-1"></path><path d="M323.12,240a165.64,165.64,0,0,1-41.45-80.43c-10.18-51.34,7-92.84,18.13-113l1.87-3.35L272.89,12.42l-3.66,2.15a86.34,86.34,0,0,1-54.31,11.35c-25.76-3.21-49-22.68-49.22-22.84L162.09,0l-3.44,3.24a86.57,86.57,0,0,1-48.13,22.68A86.34,86.34,0,0,1,56.21,14.57l-3.66-2.15L23.77,43.24l1.87,3.35c11.14,20.17,28.31,61.67,18.1,113A165.64,165.64,0,0,1,2.32,240L0,242.52l17.7,42.73,3.75-.22a138.74,138.74,0,0,1,41.28,3.61c12.14,2.93,30.45,7.38,47.74,22.23a96.6,96.6,0,0,1,27.32,39.82H149a107.67,107.67,0,0,0-31.63-47.85c-19.21-16.5-39-21.31-52.15-24.47a150.56,150.56,0,0,0-40.61-4.11L12.36,244.73a175.87,175.87,0,0,0,41.78-83.06c10.29-51.9-5.65-94.3-17.42-116.81L54.53,25.78a97,97,0,0,0,57.31,10.63A97.09,97.09,0,0,0,162.48,14c8.06,6,28.28,19.55,51.12,22.4a97,97,0,0,0,57.31-10.63l17.81,19.08C277,67.34,261,109.77,271.3,161.67a176.23,176.23,0,0,0,41.75,83.06l-12.22,29.53a150.56,150.56,0,0,0-40.61,4.11c-13.11,3.16-32.94,8-52.15,24.47-18.1,15.53-27.16,34.35-31.63,47.85h11.21A96.54,96.54,0,0,1,215,310.87c17.28-14.85,35.6-19.3,47.73-22.23A138.76,138.76,0,0,1,304,285l3.75.22,17.7-42.73Z" class="cls-1"></path><polygon points="167.96 350.69 167.57 7.1 156.97 7.1 157.39 350.69 167.96 350.69" class="cls-1"></polygon></svg>