<svg xmlns="http://www.w3.org/2000/svg" fill="none" viewBox="0 0 997 138" height="138" width="997">
<path fill="black" d="M617.632 128.425C615.363 128.425 613.251 128.014 611.294 127.192C609.365 126.341 607.692 125.192 606.274 123.746C604.856 122.3 603.736 120.612 602.914 118.684C602.091 116.755 601.68 114.685 601.68 112.473C601.68 110.233 602.091 108.148 602.914 106.22C603.764 104.263 604.899 102.576 606.317 101.158C607.763 99.7115 609.45 98.5771 611.379 97.7547C613.336 96.9323 615.42 96.5211 617.632 96.5211C619.078 96.5211 620.482 96.7196 621.843 97.1166C623.205 97.4853 624.467 98.0099 625.629 98.6906C626.792 99.3712 627.856 100.194 628.82 101.158C629.812 102.122 630.649 103.186 631.33 104.348L628.267 106.22C627.189 104.32 625.729 102.788 623.885 101.626C622.07 100.463 619.986 99.8817 617.632 99.8817C615.874 99.8817 614.243 100.222 612.74 100.903C611.237 101.555 609.933 102.448 608.827 103.583C607.721 104.717 606.841 106.05 606.189 107.581C605.565 109.113 605.253 110.743 605.253 112.473C605.253 114.203 605.565 115.834 606.189 117.365C606.813 118.868 607.678 120.187 608.784 121.321C609.89 122.456 611.195 123.349 612.698 124.001C614.201 124.654 615.831 124.98 617.59 124.98C620.17 124.98 622.397 124.356 624.268 123.108C626.168 121.86 627.615 120.23 628.607 118.216L631.755 119.875C631.074 121.151 630.252 122.314 629.288 123.363C628.324 124.413 627.232 125.32 626.012 126.086C624.821 126.823 623.517 127.404 622.099 127.83C620.681 128.227 619.192 128.425 617.632 128.425ZM643.893 128.468C642.532 128.468 641.341 128.298 640.32 127.957C639.299 127.589 638.448 127.092 637.767 126.469C637.087 125.845 636.576 125.136 636.236 124.342C635.896 123.519 635.726 122.64 635.726 121.704C635.726 119.322 636.647 117.493 638.491 116.217C640.362 114.912 642.915 114.26 646.148 114.26H653.422V113.367C653.422 111.608 652.855 110.204 651.72 109.155C650.614 108.078 648.941 107.539 646.701 107.539C644.971 107.539 643.51 107.879 642.319 108.56C641.156 109.24 640.178 110.19 639.384 111.41L636.364 109.495C637.526 107.992 638.944 106.801 640.618 105.922C642.291 105.015 644.333 104.561 646.743 104.561C648.388 104.561 649.834 104.774 651.082 105.199C652.33 105.624 653.379 106.234 654.23 107.028C655.081 107.794 655.719 108.716 656.144 109.793C656.598 110.871 656.825 112.062 656.825 113.367V128H653.422V123.959C652.401 125.377 651.054 126.483 649.381 127.277C647.707 128.071 645.878 128.468 643.893 128.468ZM644.531 125.405C645.382 125.405 646.233 125.292 647.083 125.065C647.963 124.838 648.785 124.512 649.551 124.086C650.345 123.661 651.068 123.122 651.72 122.47C652.401 121.818 652.968 121.066 653.422 120.215V117.067H646.318C643.907 117.067 642.135 117.436 641 118.173C639.866 118.911 639.299 120.003 639.299 121.449C639.299 122.583 639.71 123.533 640.532 124.299C641.383 125.036 642.716 125.405 644.531 125.405ZM662.88 105.029H666.241V109.368C666.723 107.836 667.517 106.674 668.623 105.88C669.758 105.086 671.147 104.689 672.792 104.689C674.437 104.689 675.713 104.972 676.621 105.539L675.174 108.857C674.862 108.631 674.465 108.46 673.983 108.347C673.529 108.205 672.991 108.134 672.367 108.134C670.438 108.134 668.949 108.716 667.9 109.878C666.851 111.013 666.326 112.856 666.326 115.408V128H662.88V105.029ZM680.868 105.029H684.229V109.368C684.711 107.836 685.505 106.674 686.611 105.88C687.745 105.086 689.135 104.689 690.78 104.689C692.425 104.689 693.701 104.972 694.608 105.539L693.162 108.857C692.85 108.631 692.453 108.46 691.971 108.347C691.517 108.205 690.978 108.134 690.354 108.134C688.426 108.134 686.937 108.716 685.888 109.878C684.838 111.013 684.314 112.856 684.314 115.408V128H680.868V105.029ZM701.102 136.125C699.968 136.125 698.919 135.941 697.955 135.572C696.99 135.203 696.168 134.707 695.487 134.083L697.742 131.233C698.196 131.715 698.678 132.098 699.188 132.382C699.699 132.665 700.323 132.807 701.06 132.807C701.655 132.807 702.18 132.736 702.634 132.594C703.116 132.452 703.556 132.197 703.953 131.829C704.378 131.46 704.775 130.964 705.144 130.34C705.512 129.716 705.909 128.936 706.335 128L706.845 126.894L697.231 105.029H701.017L708.717 122.81L716.034 105.029H719.82L709.398 129.021C708.83 130.297 708.263 131.389 707.696 132.296C707.157 133.204 706.562 133.941 705.909 134.508C705.257 135.076 704.534 135.487 703.74 135.742C702.974 135.997 702.095 136.125 701.102 136.125ZM743.478 115.238L732.46 96.9465H736.459L745.264 111.835L754.198 96.9465H758.154L747.008 115.196V128H743.478V115.238ZM768.323 128.468C766.622 128.468 765.048 128.17 763.601 127.575C762.155 126.951 760.893 126.1 759.815 125.022C758.766 123.945 757.93 122.683 757.306 121.236C756.71 119.79 756.412 118.216 756.412 116.514C756.412 114.841 756.71 113.281 757.306 111.835C757.93 110.36 758.78 109.084 759.858 108.007C760.936 106.929 762.198 106.092 763.644 105.497C765.09 104.873 766.65 104.561 768.323 104.561C769.996 104.561 771.556 104.873 773.003 105.497C774.477 106.092 775.753 106.929 776.831 108.007C777.909 109.084 778.745 110.36 779.341 111.835C779.965 113.281 780.277 114.841 780.277 116.514C780.277 118.188 779.965 119.747 779.341 121.194C778.745 122.64 777.909 123.902 776.831 124.98C775.753 126.057 774.491 126.908 773.045 127.532C771.599 128.156 770.025 128.468 768.323 128.468ZM768.323 125.15C769.514 125.15 770.62 124.937 771.641 124.512C772.691 124.058 773.584 123.448 774.321 122.683C775.087 121.889 775.682 120.967 776.108 119.918C776.533 118.868 776.746 117.734 776.746 116.514C776.746 115.295 776.533 114.161 776.108 113.111C775.682 112.034 775.087 111.112 774.321 110.346C773.556 109.552 772.662 108.942 771.641 108.517C770.62 108.063 769.514 107.836 768.323 107.836C767.132 107.836 766.026 108.063 765.005 108.517C763.984 108.942 763.091 109.552 762.325 110.346C761.588 111.112 761.006 112.034 760.581 113.111C760.156 114.161 759.943 115.295 759.943 116.514C759.943 117.762 760.156 118.911 760.581 119.96C761.006 121.009 761.588 121.917 762.325 122.683C763.091 123.448 763.984 124.058 765.005 124.512C766.026 124.937 767.132 125.15 768.323 125.15ZM794.959 128.468C791.811 128.468 789.415 127.56 787.77 125.745C786.125 123.902 785.303 121.35 785.303 118.088V105.029H788.834V117.918C788.834 120.159 789.401 121.945 790.535 123.278C791.67 124.611 793.343 125.277 795.555 125.277C796.576 125.277 797.512 125.093 798.362 124.724C799.213 124.356 799.951 123.845 800.574 123.193C801.227 122.512 801.723 121.718 802.063 120.811C802.432 119.875 802.616 118.854 802.616 117.748V105.029H806.105V128H802.701V124.214C801.936 125.49 800.886 126.525 799.554 127.319C798.249 128.085 796.718 128.468 794.959 128.468ZM812.266 105.029H815.626V109.368C816.108 107.836 816.903 106.674 818.009 105.88C819.143 105.086 820.533 104.689 822.177 104.689C823.822 104.689 825.098 104.972 826.006 105.539L824.56 108.857C824.248 108.631 823.851 108.46 823.368 108.347C822.915 108.205 822.376 108.134 821.752 108.134C819.824 108.134 818.335 108.716 817.285 109.878C816.236 111.013 815.711 112.856 815.711 115.408V128H812.266V105.029ZM841.233 96.9465H844.806V124.554H860.801V128H841.233V96.9465ZM876.005 128.468C874.162 128.468 872.489 128.17 870.986 127.575C869.511 126.951 868.235 126.114 867.157 125.065C866.108 123.987 865.3 122.725 864.732 121.279C864.165 119.832 863.882 118.273 863.882 116.6C863.882 114.898 864.179 113.324 864.775 111.878C865.399 110.403 866.235 109.127 867.285 108.049C868.362 106.972 869.624 106.121 871.071 105.497C872.545 104.873 874.148 104.561 875.878 104.561C877.551 104.561 879.096 104.859 880.514 105.454C881.961 106.021 883.194 106.83 884.215 107.879C885.265 108.9 886.087 110.134 886.683 111.58C887.278 112.998 887.576 114.558 887.576 116.259V117.833H867.285C867.398 118.939 867.696 119.946 868.178 120.853C868.66 121.761 869.27 122.555 870.007 123.236C870.773 123.888 871.652 124.398 872.645 124.767C873.666 125.136 874.786 125.32 876.005 125.32C877.849 125.32 879.394 124.937 880.642 124.171C881.89 123.406 882.911 122.314 883.705 120.896L886.683 122.64C885.492 124.483 884.045 125.916 882.344 126.937C880.642 127.957 878.529 128.468 876.005 128.468ZM875.878 107.666C874.772 107.666 873.737 107.851 872.772 108.219C871.836 108.56 871 109.056 870.263 109.708C869.525 110.332 868.901 111.084 868.391 111.963C867.909 112.814 867.568 113.749 867.37 114.77H884.003C883.719 112.587 882.854 110.857 881.408 109.581C879.961 108.304 878.118 107.666 875.878 107.666ZM903.621 128.468C902.004 128.468 900.473 128.184 899.027 127.617C897.609 127.022 896.375 126.199 895.326 125.15C894.276 124.072 893.44 122.81 892.816 121.364C892.22 119.889 891.923 118.273 891.923 116.514C891.923 114.756 892.22 113.154 892.816 111.708C893.44 110.233 894.276 108.971 895.326 107.922C896.403 106.844 897.651 106.021 899.069 105.454C900.515 104.859 902.047 104.561 903.663 104.561C904.486 104.561 905.308 104.674 906.131 104.901C906.981 105.1 907.775 105.398 908.513 105.795C909.278 106.163 909.973 106.645 910.597 107.241C911.249 107.808 911.802 108.446 912.256 109.155V105.029H915.744V125.916C915.744 127.702 915.447 129.319 914.851 130.765C914.284 132.24 913.476 133.488 912.426 134.508C911.405 135.529 910.172 136.309 908.725 136.848C907.308 137.415 905.734 137.699 904.004 137.699C901.31 137.699 899.097 137.274 897.368 136.423C895.666 135.6 894.22 134.423 893.029 132.892L895.921 130.595C896.375 131.247 896.857 131.814 897.368 132.296C897.906 132.779 898.488 133.176 899.112 133.488C899.764 133.828 900.487 134.083 901.281 134.253C902.075 134.423 902.969 134.508 903.961 134.508C905.237 134.508 906.386 134.31 907.407 133.913C908.428 133.516 909.293 132.949 910.002 132.211C910.739 131.474 911.306 130.581 911.703 129.531C912.1 128.51 912.299 127.348 912.299 126.043V123.789C911.845 124.526 911.292 125.192 910.64 125.788C909.987 126.355 909.278 126.837 908.513 127.234C907.775 127.631 906.981 127.929 906.131 128.128C905.308 128.354 904.472 128.468 903.621 128.468ZM903.919 125.192C905.138 125.192 906.272 124.966 907.322 124.512C908.371 124.058 909.278 123.448 910.044 122.683C910.81 121.889 911.405 120.967 911.831 119.918C912.256 118.84 912.469 117.691 912.469 116.472C912.469 115.281 912.256 114.161 911.831 113.111C911.405 112.034 910.81 111.112 910.044 110.346C909.278 109.552 908.371 108.928 907.322 108.475C906.272 107.992 905.138 107.751 903.919 107.751C902.727 107.751 901.607 107.978 900.558 108.432C899.537 108.886 898.644 109.51 897.878 110.304C897.112 111.069 896.517 111.991 896.091 113.069C895.666 114.118 895.453 115.252 895.453 116.472C895.453 117.72 895.666 118.882 896.091 119.96C896.517 121.009 897.112 121.931 897.878 122.725C898.644 123.491 899.537 124.101 900.558 124.554C901.607 124.98 902.727 125.192 903.919 125.192ZM928.706 128.468C927.344 128.468 926.153 128.298 925.132 127.957C924.111 127.589 923.261 127.092 922.58 126.469C921.899 125.845 921.389 125.136 921.049 124.342C920.708 123.519 920.538 122.64 920.538 121.704C920.538 119.322 921.46 117.493 923.303 116.217C925.175 114.912 927.727 114.26 930.96 114.26H938.234V113.367C938.234 111.608 937.667 110.204 936.533 109.155C935.427 108.078 933.754 107.539 931.513 107.539C929.783 107.539 928.323 107.879 927.132 108.56C925.969 109.24 924.99 110.19 924.196 111.41L921.176 109.495C922.339 107.992 923.757 106.801 925.43 105.922C927.103 105.015 929.145 104.561 931.556 104.561C933.201 104.561 934.647 104.774 935.895 105.199C937.143 105.624 938.192 106.234 939.043 107.028C939.893 107.794 940.531 108.716 940.957 109.793C941.411 110.871 941.637 112.062 941.637 113.367V128H938.234V123.959C937.213 125.377 935.866 126.483 934.193 127.277C932.52 128.071 930.691 128.468 928.706 128.468ZM929.344 125.405C930.194 125.405 931.045 125.292 931.896 125.065C932.775 124.838 933.598 124.512 934.363 124.086C935.157 123.661 935.881 123.122 936.533 122.47C937.213 121.818 937.781 121.066 938.234 120.215V117.067H931.13C928.72 117.067 926.947 117.436 925.813 118.173C924.679 118.911 924.111 120.003 924.111 121.449C924.111 122.583 924.523 123.533 925.345 124.299C926.196 125.036 927.529 125.405 929.344 125.405ZM958.755 128.468C957.054 128.468 955.465 128.156 953.991 127.532C952.516 126.908 951.24 126.057 950.162 124.98C949.085 123.902 948.234 122.64 947.61 121.194C947.014 119.747 946.717 118.188 946.717 116.514C946.717 114.813 947.029 113.239 947.652 111.793C948.276 110.318 949.127 109.056 950.205 108.007C951.282 106.929 952.544 106.092 953.991 105.497C955.465 104.873 957.039 104.561 958.713 104.561C959.96 104.561 961.137 104.731 962.243 105.071C963.378 105.412 964.413 105.894 965.349 106.518C966.285 107.113 967.107 107.851 967.816 108.73C968.553 109.581 969.135 110.516 969.56 111.537L966.37 112.941C965.689 111.353 964.682 110.105 963.349 109.198C962.016 108.29 960.457 107.836 958.67 107.836C957.479 107.836 956.359 108.063 955.309 108.517C954.289 108.971 953.395 109.595 952.63 110.389C951.864 111.155 951.268 112.076 950.843 113.154C950.417 114.203 950.205 115.323 950.205 116.514C950.205 117.706 950.417 118.826 950.843 119.875C951.297 120.924 951.906 121.846 952.672 122.64C953.438 123.434 954.345 124.058 955.395 124.512C956.444 124.966 957.578 125.192 958.798 125.192C960.669 125.192 962.243 124.696 963.52 123.704C964.824 122.683 965.802 121.406 966.455 119.875L969.688 121.236C968.78 123.363 967.391 125.107 965.519 126.469C963.676 127.801 961.421 128.468 958.755 128.468ZM975.945 136.125C974.811 136.125 973.761 135.941 972.797 135.572C971.833 135.203 971.01 134.707 970.33 134.083L972.584 131.233C973.038 131.715 973.52 132.098 974.031 132.382C974.541 132.665 975.165 132.807 975.902 132.807C976.498 132.807 977.023 132.736 977.476 132.594C977.958 132.452 978.398 132.197 978.795 131.829C979.22 131.46 979.617 130.964 979.986 130.34C980.355 129.716 980.752 128.936 981.177 128L981.688 126.894L972.074 105.029H975.86L983.559 122.81L990.876 105.029H994.662L984.24 129.021C983.673 130.297 983.106 131.389 982.538 132.296C982 133.204 981.404 133.941 980.752 134.508C980.1 135.076 979.376 135.487 978.582 135.742C977.817 135.997 976.937 136.125 975.945 136.125Z"></path>
<g clip-path="url(#clip0_431_2)">
<path fill="black" d="M18.05 17.5901H0V8.87012H45.51V17.5901H27.51V72.5201H18.05V17.5901Z"></path>
<path fill="black" d="M96.1704 45.0601H65.6604V72.5201H56.1504V8.87012H65.6604V36.0001H96.1704V8.87012H105.59V72.5201H96.1704V45.0601Z"></path>
<path fill="black" d="M118.75 8.87012H160.43V17.9401H128.08V36.0801H160.43V45.1401H128.08V63.3701H160.43V72.5201H118.75V8.87012Z"></path>
<path fill="black" d="M193.391 8.86996H218.151C221.363 8.82321 224.556 9.36899 227.571 10.48C230.235 11.4791 232.678 12.991 234.761 14.93C236.765 16.8123 238.341 19.1042 239.381 21.65C240.483 24.3467 241.033 27.2369 241.001 30.15C241.02 34.0976 239.913 37.9689 237.811 41.31C235.662 44.7704 232.473 47.4622 228.701 49L242.221 72.54H231.411L219.901 51.54H202.811V72.54H193.391V8.86996ZM202.811 17.68V42.79H217.371C219.528 42.8422 221.675 42.4719 223.691 41.7C225.339 41.0512 226.837 40.071 228.091 38.82C229.237 37.6577 230.114 36.2581 230.661 34.72C231.219 33.1713 231.5 31.5362 231.491 29.89C231.573 28.2453 231.305 26.6019 230.703 25.0691C230.101 23.5363 229.18 22.1492 228.001 21C225.647 18.76 222.117 17.64 217.411 17.64L202.811 17.68Z"></path>
<path fill="black" d="M251.891 8.87012H293.571V17.9401H261.221V36.0801H293.571V45.1401H261.221V63.3701H293.571V72.5201H251.891V8.87012Z"></path>
<path fill="black" d="M325.661 8.87012H335.251L359.841 72.5201H350.001L344.851 58.9201H316.071L311.001 72.5201H301.061L325.661 8.87012ZM319.471 49.8701H341.471L330.471 20.7501L319.471 49.8701Z"></path>
<path fill="black" d="M368.211 8.87012H377.711V63.2801H408.711V72.5201H368.211V8.87012Z"></path>
<path fill="black" d="M440.23 8.87012H449.73V63.2801H480.68V72.5201H440.23V8.87012Z"></path>
<path fill="black" d="M491.32 8.87012H533V17.9401H500.65V36.0801H533V45.1401H500.65V63.3701H533V72.5201H491.32V8.87012Z"></path>
<path fill="black" d="M565.09 8.87012H574.68L599.27 72.5201H589.41L584.27 58.9201H555.5L550.44 72.5201H540.5L565.09 8.87012ZM558.9 49.8701H580.9L569.9 20.7501L558.9 49.8701Z"></path>
<path fill="black" d="M613 17.5901H595V8.87012H640.51V17.5901H622.51V72.5201H613V17.5901Z"></path>
<path fill="black" d="M691.08 45.0601H660.56V72.5201H651.06V8.87012H660.56V36.0001H691.08V8.87012H700.5V72.5201H691.08V45.0601Z"></path>
<path fill="black" d="M713.66 8.87012H755.34V17.9401H723V36.0801H755.35V45.1401H723V63.3701H755.35V72.5201H713.66V8.87012Z"></path>
<path fill="black" d="M767.37 8.86996H792.13C795.342 8.82321 798.536 9.36899 801.55 10.48C804.215 11.4791 806.657 12.991 808.74 14.93C810.745 16.8123 812.32 19.1042 813.36 21.65C814.462 24.3467 815.013 27.2369 814.98 30.15C814.999 34.0976 813.893 37.9689 811.79 41.31C809.644 44.7727 806.454 47.4652 802.68 49L816.2 72.52H805.39L793.88 51.52H776.79V72.52H767.37V8.86996ZM776.79 17.68V42.79H791.35C793.508 42.8422 795.655 42.4719 797.67 41.7C799.318 41.0512 800.816 40.071 802.07 38.82C803.216 37.6577 804.094 36.2581 804.64 34.72C805.199 33.1713 805.48 31.5362 805.47 29.89C805.548 28.2423 805.273 26.5972 804.664 25.0642C804.055 23.5312 803.127 22.1456 801.94 21C799.587 18.76 796.057 17.64 791.35 17.64L776.79 17.68Z"></path>
<path fill="black" d="M877.67 73.3898C873.323 73.4393 869.011 72.6161 864.988 70.9688C860.965 69.3216 857.314 66.8838 854.25 63.7998C851.312 60.8254 848.988 57.3018 847.41 53.4298C845.776 49.3866 844.957 45.0605 845 40.6998C844.951 36.2395 845.812 31.816 847.53 27.6998C849.157 23.8126 851.536 20.2851 854.53 17.3198C857.525 14.3705 861.064 12.0306 864.95 10.4298C868.988 8.78764 873.311 7.96174 877.67 7.99979C880.601 7.9859 883.519 8.3831 886.34 9.17979C889.054 9.93956 891.661 11.0382 894.1 12.4498C896.515 13.8462 898.742 15.543 900.73 17.4998C902.707 19.4493 904.421 21.6478 905.83 24.0398L897.55 29.1898C895.672 25.6341 892.919 22.6158 889.55 20.4198C886.007 18.1905 881.885 17.0533 877.7 17.1498C874.539 17.1216 871.407 17.7481 868.5 18.9898C865.743 20.1635 863.24 21.8616 861.13 23.9898C859.019 26.1391 857.36 28.6892 856.25 31.4898C855.073 34.4131 854.478 37.5384 854.5 40.6898C854.473 43.8125 855.068 46.9093 856.25 49.7998C857.368 52.5598 859.012 55.0764 861.09 57.2098C863.176 59.3433 865.664 61.0427 868.41 62.2098C871.318 63.4472 874.45 64.0703 877.61 64.0398C882.091 64.176 886.5 62.8952 890.21 60.3798C893.639 57.9801 896.393 54.7399 898.21 50.9698L906.75 55.4998C905.384 58.1344 903.683 60.5813 901.69 62.7798C898.668 66.1439 894.965 68.8276 890.828 70.6533C886.69 72.4789 882.212 73.4049 877.69 73.3698L877.67 73.3898Z"></path>
<path fill="black" d="M945.42 73.39C941.042 73.4253 936.703 72.5502 932.68 70.82C928.818 69.1736 925.311 66.7967 922.35 63.82C919.387 60.8329 917.013 57.315 915.35 53.45C913.625 49.4228 912.757 45.0809 912.8 40.7C912.771 36.3337 913.65 32.009 915.38 28C917.043 24.1319 919.417 20.6108 922.38 17.62C925.346 14.6496 928.852 12.2737 932.71 10.62C936.749 8.92391 941.085 8.05029 945.465 8.05029C949.846 8.05029 954.182 8.92391 958.22 10.62C962.096 12.2633 965.617 14.6402 968.59 17.62C971.553 20.6112 973.928 24.1323 975.59 28C977.317 32.0204 978.192 36.3548 978.16 40.73C978.19 45.1051 977.315 49.439 975.59 53.46C973.927 57.3247 971.553 60.8424 968.59 63.83C965.623 66.8163 962.1 69.1942 958.22 70.83C954.176 72.5579 949.818 73.4295 945.42 73.39ZM945.42 64.15C948.489 64.1738 951.53 63.5755 954.361 62.3913C957.192 61.2071 959.753 59.4616 961.89 57.26C963.99 55.1104 965.662 52.5825 966.82 49.81C968.025 46.925 968.634 43.8263 968.61 40.7C968.624 37.5747 968.015 34.4779 966.82 31.59C965.686 28.7905 964.01 26.242 961.89 24.09C959.78 21.9442 957.283 20.2171 954.53 19C951.652 17.7576 948.55 17.1168 945.415 17.1168C942.28 17.1168 939.179 17.7576 936.3 19C933.562 20.2099 931.083 21.9384 929 24.09C924.718 28.5594 922.329 34.5104 922.33 40.7C922.302 43.8268 922.911 46.9266 924.12 49.81C925.275 52.5722 926.93 55.0978 929 57.26C931.075 59.422 933.565 61.143 936.32 62.32C939.195 63.5498 942.293 64.1728 945.42 64.15Z"></path>
<path fill="black" d="M983.08 67.2902C983.056 66.4049 983.209 65.5237 983.532 64.6991C983.855 63.8744 984.341 63.1232 984.96 62.4902C985.577 61.8611 986.318 61.3666 987.135 61.0379C987.953 60.7091 988.83 60.5533 989.71 60.5802C990.605 60.5487 991.497 60.702 992.329 61.0306C993.162 61.3593 993.918 61.8562 994.55 62.4902C995.752 63.7999 996.419 65.5128 996.419 67.2902C996.419 69.0677 995.752 70.7805 994.55 72.0902C993.918 72.7243 993.162 73.2212 992.329 73.5498C991.497 73.8784 990.605 74.0318 989.71 74.0002C988.821 74.0354 987.934 73.8835 987.108 73.5545C986.281 73.2255 985.532 72.7267 984.91 72.0902C984.303 71.4505 983.829 70.697 983.515 69.8732C983.201 69.0493 983.053 68.1715 983.08 67.2902Z"></path>
</g>
<defs>
<clipPath id="clip0_431_2">
<rect transform="translate(0 8)" fill="white" height="66" width="996.42"></rect>
</clipPath>
</defs>
</svg>
